<svg width="147" height="182" viewBox="0 0 147 182" fill="none" xmlns="http://www.w3.org/2000/svg">
<path d="M30.7236 122.555C32.8374 122.555 34.5486 124.278 34.5488 126.404V126.945H62.9922C63.3575 126.945 63.6639 126.988 64.3584 127.296C65.0402 127.598 66.1181 128.165 68.0322 129.224C71.8651 131.344 79.0929 135.46 93.3066 143.435L93.3154 143.439L93.3232 143.445C94.1637 144.009 94.8449 144.674 95.3896 145.402C96.1084 145.369 98.5246 145.144 101.196 144.798C104.043 144.429 107.135 143.928 108.746 143.396L130.379 132.086H130.38C133.221 130.613 137.112 131.279 140.267 133.396C143.431 135.519 145.91 139.136 145.91 143.652C145.91 146.716 145.019 149.087 143.497 150.96C141.981 152.826 139.853 154.182 137.398 155.247C136.499 155.719 124.793 161.791 111.122 167.947C104.269 171.033 96.9196 174.142 90.1875 176.577C83.8814 178.858 78.0989 180.555 73.7705 181.082L72.9248 181.172C72.338 181.225 71.7016 181.25 71.0254 181.25C66.182 181.25 59.1412 179.978 52.2344 178.391C45.4625 176.834 38.7976 174.97 34.416 173.686C34.0732 175.446 32.5861 176.799 30.7236 176.799H4.5752C2.46122 176.799 0.750094 175.075 0.75 172.949V126.404C0.750257 124.278 2.46137 122.555 4.5752 122.555H30.7236ZM34.5488 165.7C39.5239 167.189 47.0427 169.296 54.2607 170.954C57.9133 171.793 61.4861 172.516 64.6113 172.986C67.7413 173.457 70.4046 173.672 72.2471 173.502H72.248C76.2354 173.147 82.0641 171.416 88.5908 169.002C95.1107 166.59 102.305 163.506 109.013 160.457C122.428 154.36 133.89 148.413 134.116 148.294L134.124 148.289L134.132 148.286C135.146 147.843 136.172 147.438 136.956 146.759C137.721 146.096 138.26 145.167 138.26 143.652C138.259 140.992 135.964 138.929 133.359 139.204C124.101 144.039 118.74 146.85 115.642 148.47C114.09 149.28 113.106 149.793 112.484 150.111C111.879 150.421 111.598 150.555 111.475 150.597C109.407 151.306 105.829 151.912 102.655 152.345C99.7399 152.742 97.1367 152.994 96.3105 153.054C95.7701 154.961 94.8589 157.329 93.5674 159.245C92.243 161.21 90.4793 162.761 88.2686 162.761C87.3117 162.761 86.3918 162.588 85.5332 162.244L63.1689 155.709C61.1399 155.114 59.9762 152.978 60.5654 150.938L60.625 150.749C61.2854 148.822 63.3319 147.734 65.3076 148.317H65.3066L87.3311 154.768C87.7383 154.099 88.1889 153.155 88.5527 152.241C88.7489 151.749 88.9188 151.27 89.043 150.854C89.1429 150.519 89.2089 150.234 89.2393 150.019L61.9912 134.646H34.5488V165.7ZM8.40039 169.099H26.8975V130.255H8.40039V169.099ZM43.79 55.6689C43.7901 34.0387 62.4472 16.7558 84.418 19.1416L84.4189 19.1426C100.941 20.9732 114.437 34.3349 116.512 50.916C117.768 60.9557 115.035 70.7971 108.814 78.6201C106.473 81.5637 104.456 86.1521 102.842 91.1377C101.23 96.1173 100.026 101.469 99.3037 105.92C99.0015 107.78 97.4059 109.15 95.5293 109.15H65.0967C63.2297 109.15 61.6378 107.795 61.3262 105.946C60.5269 101.213 59.1987 95.7683 57.4844 90.7412C55.7686 85.7099 53.6726 81.1161 51.3447 78.0684C46.4022 71.5978 43.79 63.8518 43.79 55.6689ZM83.5811 26.7959C66.2189 24.8863 51.4403 38.5567 51.4404 55.6689C51.4404 62.1395 53.5034 68.2633 57.4082 73.377L57.8994 74.04C62.886 80.9878 66.4389 92.4312 68.2705 101.45H76.4736V73.5107L69.625 66.6172C68.1316 65.1134 68.1316 62.6776 69.625 61.1738C71.1193 59.6695 73.5409 59.6693 75.0352 61.1738L80.2988 66.4727L85.5635 61.1738C87.0578 59.6695 89.4793 59.6694 90.9736 61.1738C92.4671 62.6776 92.4671 65.1134 90.9736 66.6172L84.124 73.5117V101.45H92.3311C93.0006 97.9981 94.1223 93.0274 95.8057 87.9814C97.5209 82.8399 99.825 77.5991 102.84 73.8086C107.757 67.6254 109.918 59.8394 108.921 51.8789C107.284 38.7914 96.623 28.2396 83.5811 26.7969V26.7959ZM80.2988 0.75C82.4128 0.75 84.1238 2.47343 84.124 4.59961V14.1836C84.124 16.31 82.4129 18.0342 80.2988 18.0342C78.1849 18.0341 76.4736 16.3099 76.4736 14.1836V4.59961C76.4739 2.47351 78.185 0.750126 80.2988 0.75Z" fill="#B52C33" stroke="#B52C33" stroke-width="0.5"/>
<path d="M90.4474 114.41C92.5615 114.41 94.2726 116.134 94.2726 118.26C94.2726 120.387 92.5615 122.11 90.4474 122.11H70.1408C68.0268 122.11 66.3157 120.387 66.3156 118.26C66.3156 116.134 68.0268 114.41 70.1408 114.41H90.4474ZM48.1359 81.9566C49.6303 80.4519 52.0527 80.4519 53.5471 81.9566C55.0405 83.4603 55.0405 85.8962 53.5471 87.4L47.59 93.398C46.0957 94.9024 43.6741 94.9023 42.1799 93.398C40.6864 91.8943 40.6865 89.4584 42.1799 87.9547L48.1359 81.9566ZM107.041 81.9566C108.536 80.4519 110.958 80.4519 112.452 81.9566L118.408 87.9547C119.902 89.4584 119.902 91.8942 118.408 93.398C116.914 94.9024 114.492 94.9023 112.998 93.398L107.041 87.4C105.548 85.8962 105.548 83.4603 107.041 81.9566ZM39.7365 51.1695C41.8506 51.1695 43.5627 52.8937 43.5627 55.0201C43.5626 57.1464 41.8505 58.8697 39.7365 58.8697H30.2189C28.105 58.8696 26.3938 57.1463 26.3937 55.0201C26.3937 52.8937 28.1049 51.1696 30.2189 51.1695H39.7365ZM130.371 51.1695C132.485 51.1695 134.196 52.8937 134.196 55.0201C134.196 57.1464 132.485 58.8697 130.371 58.8697H120.854C118.74 58.8697 117.029 57.1464 117.029 55.0201C117.029 52.8937 118.74 51.1695 120.854 51.1695H130.371ZM42.1799 16.6461C43.6742 15.1413 46.0956 15.1413 47.59 16.6461L53.5471 22.6431C55.0405 24.1468 55.0404 26.5827 53.5471 28.0865C52.0527 29.5912 49.6312 29.5909 48.1369 28.0865L42.1799 22.0884C40.6867 20.5847 40.6867 18.1498 42.1799 16.6461ZM112.998 16.6461C114.493 15.1413 116.914 15.1414 118.408 16.6461C119.902 18.1498 119.902 20.5847 118.408 22.0884L112.452 28.0865C110.958 29.5913 108.536 29.5912 107.041 28.0865C105.548 26.5827 105.548 24.1468 107.041 22.6431L112.998 16.6461Z" fill="#B52C33" stroke="#B52C33" stroke-width="0.5"/>
</svg>
