<svg width="179" height="182" viewBox="0 0 179 182" fill="none" xmlns="http://www.w3.org/2000/svg">
<mask id="path-1-outside-1_81_26" maskUnits="userSpaceOnUse" x="0" y="0" width="179" height="182" fill="black">
<rect fill="white" width="179" height="182"/>
<path d="M143.779 11.8513C143.759 11.4825 143.812 11.1134 143.935 10.765C144.057 10.4166 144.248 10.0957 144.494 9.82079C144.741 9.54584 145.039 9.32217 145.372 9.16255C145.705 9.00292 146.067 8.91047 146.435 8.89047L164.663 7.90117C165.079 7.87861 165.494 7.94867 165.88 8.1063C166.265 8.26393 166.611 8.5052 166.892 8.81268C167.173 9.12016 167.382 9.48617 167.504 9.88429C167.626 10.2824 167.658 10.7027 167.598 11.1148L164.968 29.1784C164.861 29.9165 164.464 30.5816 163.867 31.0275C163.269 31.4734 162.518 31.6637 161.78 31.5564C161.042 31.4489 160.377 31.0527 159.931 30.4547C159.485 29.8568 159.295 29.1062 159.402 28.3681L160.9 18.0814C139.457 37.2457 115.735 54.2867 90.2997 68.7837C66.5991 82.2922 40.7898 93.9447 13.5887 103.418C13.2914 103.521 12.9787 103.575 12.6638 103.575C11.9994 103.574 11.3567 103.338 10.8494 102.909C10.3422 102.48 10.0032 101.886 9.89242 101.23C9.78167 100.575 9.90635 99.9022 10.2444 99.3302C10.5824 98.7583 11.1119 98.3244 11.7392 98.1054C67.3806 78.728 116.244 50.4262 157.082 13.9459L146.74 14.5074C145.188 14.5879 143.864 13.4024 143.779 11.8513ZM178.799 166.071V178.188C178.799 178.933 178.502 179.649 177.975 180.176C177.447 180.704 176.732 181 175.986 181H3.8916C3.14568 181 2.43031 180.704 1.90286 180.176C1.37542 179.649 1.0791 178.933 1.0791 178.188V166.071C1.0791 165.325 1.37542 164.61 1.90286 164.082C2.43031 163.555 3.14568 163.258 3.8916 163.258H12.2496V122.346C12.2496 121.6 12.546 120.885 13.0734 120.358C13.6009 119.83 14.3162 119.534 15.0621 119.534H37.8536C38.5995 119.534 39.3149 119.83 39.8423 120.358C40.3698 120.885 40.6661 121.6 40.6661 122.346V163.259H54.57V99.4375C54.57 98.6916 54.8664 97.9762 55.3938 97.4488C55.9213 96.9213 56.6366 96.625 57.3825 96.625H80.1747C80.9206 96.625 81.636 96.9213 82.1634 97.4488C82.6909 97.9762 82.9872 98.6916 82.9872 99.4375V163.259H96.8911V75.5158C96.8911 74.7699 97.1874 74.0545 97.7149 73.527C98.2423 72.9996 98.9577 72.7033 99.7036 72.7033H122.495C123.241 72.7033 123.957 72.9996 124.484 73.527C125.012 74.0545 125.308 74.7699 125.308 75.5158V163.258H139.211V53.9963C139.211 53.2504 139.507 52.535 140.035 52.0076C140.562 51.4801 141.277 51.1838 142.023 51.1838H164.815C165.561 51.1838 166.276 51.4801 166.804 52.0076C167.331 52.535 167.628 53.2504 167.628 53.9963V163.258H175.986C176.355 163.258 176.721 163.331 177.062 163.472C177.403 163.614 177.713 163.821 177.975 164.082C178.236 164.343 178.443 164.653 178.584 164.995C178.726 165.336 178.799 165.702 178.799 166.071ZM144.836 163.258H162.003V56.8088H144.836V163.258ZM102.516 163.258H119.683V78.3283H102.516V163.258ZM60.1954 163.258H77.3625V102.25H60.1954V163.258ZM17.875 163.258H35.0414V125.159H17.875V163.258ZM173.174 168.883H6.7041V175.375H173.173L173.174 168.883ZM1 41.0929V32.2145C1.00003 31.5457 1.2384 30.8988 1.67234 30.3899C2.10627 29.8809 2.70737 29.5433 3.36777 29.4375L11.1777 28.1874C11.5834 26.9669 12.0767 25.7773 12.6536 24.6278L8.01437 18.2195C7.62216 17.6778 7.43585 17.014 7.48887 16.3472C7.5419 15.6805 7.83079 15.0545 8.30371 14.5816L14.5816 8.30371C15.0544 7.83066 15.6805 7.54168 16.3472 7.48865C17.014 7.43563 17.6778 7.62202 18.2195 8.01437L24.6271 12.6536C25.7766 12.0764 26.9664 11.5831 28.187 11.1774L29.4375 3.36777C29.5433 2.70737 29.8809 2.10627 30.3899 1.67234C30.8988 1.2384 31.5457 1.00003 32.2145 1H41.0929C41.7618 1.00004 42.4087 1.23846 42.9177 1.67247C43.4266 2.10648 43.7642 2.70766 43.8699 3.36813L45.12 11.1774C46.3406 11.583 47.5303 12.0765 48.6796 12.6539L55.0875 8.01437C55.6293 7.62216 56.2931 7.43585 56.9598 7.48888C57.6265 7.5419 58.2526 7.83079 58.7255 8.30371L65.0034 14.5816C65.4763 15.0545 65.7652 15.6805 65.8182 16.3472C65.8712 17.014 65.6849 17.6778 65.2927 18.2195L60.6531 24.6278C61.2302 25.7772 61.7234 26.9669 62.129 28.1874L69.9393 29.4375C70.5997 29.5433 71.2008 29.8809 71.6347 30.3899C72.0687 30.8988 72.307 31.5457 72.3071 32.2145V41.0929C72.307 41.7617 72.0687 42.4086 71.6347 42.9176C71.2008 43.4265 70.5997 43.7641 69.9393 43.8699L62.1297 45.12C61.7241 46.3407 61.2306 47.5303 60.6531 48.6796L65.2927 55.0875C65.6849 55.6293 65.8712 56.2931 65.8182 56.9598C65.7652 57.6265 65.4763 58.2526 65.0034 58.7255L58.7255 65.0034C58.2526 65.4763 57.6265 65.7652 56.9598 65.8182C56.2931 65.8712 55.6293 65.6849 55.0875 65.2927L48.6793 60.6531C47.53 61.2302 46.3405 61.7235 45.12 62.129L43.8699 69.9393C43.7641 70.5997 43.4265 71.2008 42.9176 71.6347C42.4086 72.0687 41.7617 72.307 41.0929 72.3071H32.2145C31.5457 72.307 30.8988 72.0687 30.3899 71.6347C29.8809 71.2008 29.5433 70.5997 29.4375 69.9393L28.1874 62.1297C26.9668 61.7241 25.7771 61.2306 24.6278 60.6531L18.2199 65.2927C17.6781 65.6849 17.0143 65.8712 16.3476 65.8182C15.6809 65.7652 15.0549 65.4763 14.5819 65.0034L8.30406 58.7255C7.83114 58.2526 7.54225 57.6265 7.48923 56.9598C7.4362 56.2931 7.62251 55.6293 8.01473 55.0875L12.6543 48.6793C12.0772 47.5299 11.5839 46.3402 11.1784 45.1197L3.36848 43.8695C2.70795 43.7641 2.10665 43.4266 1.67255 42.9177C1.23845 42.4088 0.999997 41.7618 1 41.0929ZM6.625 38.6949L13.8187 39.8463C14.3601 39.933 14.8644 40.1761 15.2695 40.5457C15.6747 40.9153 15.9629 41.3952 16.0989 41.9264C16.5963 43.8696 17.3685 45.7319 18.3921 47.4569C18.6719 47.9286 18.8075 48.4719 18.7825 49.0197C18.7574 49.5676 18.5728 50.0962 18.2512 50.5404L13.9769 56.4439L16.8632 59.3302L22.7666 55.0559C23.2109 54.7342 23.7396 54.5495 24.2875 54.5245C24.8355 54.4994 25.3788 54.6351 25.8505 54.9149C27.5752 55.9387 29.4372 56.711 31.3803 57.2082C31.9116 57.344 32.3917 57.6322 32.7613 58.0374C33.131 58.4425 33.3741 58.9469 33.4608 59.4884L34.6122 66.6817H38.6942L39.8455 59.4877C39.9323 58.9462 40.1754 58.4419 40.545 58.0368C40.9146 57.6317 41.3945 57.3434 41.9257 57.2075C43.8688 56.7101 45.7309 55.938 47.4558 54.9146C47.9276 54.6347 48.4709 54.499 49.0188 54.524C49.5668 54.5491 50.0955 54.7338 50.5397 55.0555L56.4432 59.3298L59.3298 56.4435L55.0556 50.5401C54.7339 50.0958 54.5492 49.5671 54.5241 49.0192C54.4991 48.4713 54.6348 47.928 54.9146 47.4562C55.9384 45.7315 56.7106 43.8695 57.2078 41.9264C57.3436 41.3951 57.6319 40.9151 58.037 40.5454C58.4421 40.1757 58.9465 39.9326 59.488 39.8459L66.6814 38.6945V34.6125L59.4873 33.4608C58.9459 33.3741 58.4416 33.1309 58.0365 32.7614C57.6314 32.3918 57.3431 31.9119 57.2071 31.3806C56.7097 29.4376 55.9376 27.5755 54.9142 25.8505C54.6344 25.3788 54.4987 24.8355 54.5238 24.2875C54.5488 23.7396 54.7335 23.2109 55.0552 22.7666L59.3295 16.8632L56.4428 13.9769L50.5408 18.2512C50.0965 18.5728 49.5678 18.7576 49.0199 18.7826C48.472 18.8076 47.9287 18.6719 47.4569 18.3921C45.7321 17.3683 43.8699 16.596 41.9268 16.0986C41.3955 15.9627 40.9156 15.6744 40.546 15.2693C40.1764 14.8642 39.9333 14.3598 39.8466 13.8183L38.6949 6.625H34.6129L33.4615 13.8183C33.3748 14.3598 33.1316 14.8641 32.7621 15.2692C32.3925 15.6743 31.9126 15.9626 31.3813 16.0986C29.4382 16.5961 27.5759 17.3682 25.8509 18.3918C25.3791 18.6716 24.8358 18.8073 24.2879 18.7822C23.7399 18.7572 23.2113 18.5725 22.767 18.2508L16.8636 13.9769L13.9772 16.8632L18.2515 22.7666C18.5732 23.2109 18.7579 23.7395 18.7829 24.2873C18.808 24.8352 18.6723 25.3785 18.3925 25.8502C17.3688 27.575 16.5967 29.4372 16.0996 31.3803C15.9638 31.9116 15.6756 32.3916 15.2704 32.7612C14.8653 33.1308 14.3609 33.3739 13.8194 33.4605L6.62535 34.6122L6.625 38.6949ZM20.723 36.6537C20.723 27.8696 27.8696 20.723 36.6537 20.723C45.4379 20.723 52.5844 27.8696 52.5844 36.6537C52.5844 45.4379 45.4379 52.5844 36.6537 52.5844C27.8696 52.5844 20.723 45.4379 20.723 36.6537ZM26.348 36.6537C26.348 42.3364 30.9711 46.9594 36.6537 46.9594C42.3364 46.9594 46.9594 42.3364 46.9594 36.6537C46.9594 30.9711 42.3364 26.348 36.6537 26.348C30.9711 26.348 26.348 30.9711 26.348 36.6537Z"/>
</mask>
<path d="M143.779 11.8513C143.759 11.4825 143.812 11.1134 143.935 10.765C144.057 10.4166 144.248 10.0957 144.494 9.82079C144.741 9.54584 145.039 9.32217 145.372 9.16255C145.705 9.00292 146.067 8.91047 146.435 8.89047L164.663 7.90117C165.079 7.87861 165.494 7.94867 165.88 8.1063C166.265 8.26393 166.611 8.5052 166.892 8.81268C167.173 9.12016 167.382 9.48617 167.504 9.88429C167.626 10.2824 167.658 10.7027 167.598 11.1148L164.968 29.1784C164.861 29.9165 164.464 30.5816 163.867 31.0275C163.269 31.4734 162.518 31.6637 161.78 31.5564C161.042 31.4489 160.377 31.0527 159.931 30.4547C159.485 29.8568 159.295 29.1062 159.402 28.3681L160.9 18.0814C139.457 37.2457 115.735 54.2867 90.2997 68.7837C66.5991 82.2922 40.7898 93.9447 13.5887 103.418C13.2914 103.521 12.9787 103.575 12.6638 103.575C11.9994 103.574 11.3567 103.338 10.8494 102.909C10.3422 102.48 10.0032 101.886 9.89242 101.23C9.78167 100.575 9.90635 99.9022 10.2444 99.3302C10.5824 98.7583 11.1119 98.3244 11.7392 98.1054C67.3806 78.728 116.244 50.4262 157.082 13.9459L146.74 14.5074C145.188 14.5879 143.864 13.4024 143.779 11.8513ZM178.799 166.071V178.188C178.799 178.933 178.502 179.649 177.975 180.176C177.447 180.704 176.732 181 175.986 181H3.8916C3.14568 181 2.43031 180.704 1.90286 180.176C1.37542 179.649 1.0791 178.933 1.0791 178.188V166.071C1.0791 165.325 1.37542 164.61 1.90286 164.082C2.43031 163.555 3.14568 163.258 3.8916 163.258H12.2496V122.346C12.2496 121.6 12.546 120.885 13.0734 120.358C13.6009 119.83 14.3162 119.534 15.0621 119.534H37.8536C38.5995 119.534 39.3149 119.83 39.8423 120.358C40.3698 120.885 40.6661 121.6 40.6661 122.346V163.259H54.57V99.4375C54.57 98.6916 54.8664 97.9762 55.3938 97.4488C55.9213 96.9213 56.6366 96.625 57.3825 96.625H80.1747C80.9206 96.625 81.636 96.9213 82.1634 97.4488C82.6909 97.9762 82.9872 98.6916 82.9872 99.4375V163.259H96.8911V75.5158C96.8911 74.7699 97.1874 74.0545 97.7149 73.527C98.2423 72.9996 98.9577 72.7033 99.7036 72.7033H122.495C123.241 72.7033 123.957 72.9996 124.484 73.527C125.012 74.0545 125.308 74.7699 125.308 75.5158V163.258H139.211V53.9963C139.211 53.2504 139.507 52.535 140.035 52.0076C140.562 51.4801 141.277 51.1838 142.023 51.1838H164.815C165.561 51.1838 166.276 51.4801 166.804 52.0076C167.331 52.535 167.628 53.2504 167.628 53.9963V163.258H175.986C176.355 163.258 176.721 163.331 177.062 163.472C177.403 163.614 177.713 163.821 177.975 164.082C178.236 164.343 178.443 164.653 178.584 164.995C178.726 165.336 178.799 165.702 178.799 166.071ZM144.836 163.258H162.003V56.8088H144.836V163.258ZM102.516 163.258H119.683V78.3283H102.516V163.258ZM60.1954 163.258H77.3625V102.25H60.1954V163.258ZM17.875 163.258H35.0414V125.159H17.875V163.258ZM173.174 168.883H6.7041V175.375H173.173L173.174 168.883ZM1 41.0929V32.2145C1.00003 31.5457 1.2384 30.8988 1.67234 30.3899C2.10627 29.8809 2.70737 29.5433 3.36777 29.4375L11.1777 28.1874C11.5834 26.9669 12.0767 25.7773 12.6536 24.6278L8.01437 18.2195C7.62216 17.6778 7.43585 17.014 7.48887 16.3472C7.5419 15.6805 7.83079 15.0545 8.30371 14.5816L14.5816 8.30371C15.0544 7.83066 15.6805 7.54168 16.3472 7.48865C17.014 7.43563 17.6778 7.62202 18.2195 8.01437L24.6271 12.6536C25.7766 12.0764 26.9664 11.5831 28.187 11.1774L29.4375 3.36777C29.5433 2.70737 29.8809 2.10627 30.3899 1.67234C30.8988 1.2384 31.5457 1.00003 32.2145 1H41.0929C41.7618 1.00004 42.4087 1.23846 42.9177 1.67247C43.4266 2.10648 43.7642 2.70766 43.8699 3.36813L45.12 11.1774C46.3406 11.583 47.5303 12.0765 48.6796 12.6539L55.0875 8.01437C55.6293 7.62216 56.2931 7.43585 56.9598 7.48888C57.6265 7.5419 58.2526 7.83079 58.7255 8.30371L65.0034 14.5816C65.4763 15.0545 65.7652 15.6805 65.8182 16.3472C65.8712 17.014 65.6849 17.6778 65.2927 18.2195L60.6531 24.6278C61.2302 25.7772 61.7234 26.9669 62.129 28.1874L69.9393 29.4375C70.5997 29.5433 71.2008 29.8809 71.6347 30.3899C72.0687 30.8988 72.307 31.5457 72.3071 32.2145V41.0929C72.307 41.7617 72.0687 42.4086 71.6347 42.9176C71.2008 43.4265 70.5997 43.7641 69.9393 43.8699L62.1297 45.12C61.7241 46.3407 61.2306 47.5303 60.6531 48.6796L65.2927 55.0875C65.6849 55.6293 65.8712 56.2931 65.8182 56.9598C65.7652 57.6265 65.4763 58.2526 65.0034 58.7255L58.7255 65.0034C58.2526 65.4763 57.6265 65.7652 56.9598 65.8182C56.2931 65.8712 55.6293 65.6849 55.0875 65.2927L48.6793 60.6531C47.53 61.2302 46.3405 61.7235 45.12 62.129L43.8699 69.9393C43.7641 70.5997 43.4265 71.2008 42.9176 71.6347C42.4086 72.0687 41.7617 72.307 41.0929 72.3071H32.2145C31.5457 72.307 30.8988 72.0687 30.3899 71.6347C29.8809 71.2008 29.5433 70.5997 29.4375 69.9393L28.1874 62.1297C26.9668 61.7241 25.7771 61.2306 24.6278 60.6531L18.2199 65.2927C17.6781 65.6849 17.0143 65.8712 16.3476 65.8182C15.6809 65.7652 15.0549 65.4763 14.5819 65.0034L8.30406 58.7255C7.83114 58.2526 7.54225 57.6265 7.48923 56.9598C7.4362 56.2931 7.62251 55.6293 8.01473 55.0875L12.6543 48.6793C12.0772 47.5299 11.5839 46.3402 11.1784 45.1197L3.36848 43.8695C2.70795 43.7641 2.10665 43.4266 1.67255 42.9177C1.23845 42.4088 0.999997 41.7618 1 41.0929ZM6.625 38.6949L13.8187 39.8463C14.3601 39.933 14.8644 40.1761 15.2695 40.5457C15.6747 40.9153 15.9629 41.3952 16.0989 41.9264C16.5963 43.8696 17.3685 45.7319 18.3921 47.4569C18.6719 47.9286 18.8075 48.4719 18.7825 49.0197C18.7574 49.5676 18.5728 50.0962 18.2512 50.5404L13.9769 56.4439L16.8632 59.3302L22.7666 55.0559C23.2109 54.7342 23.7396 54.5495 24.2875 54.5245C24.8355 54.4994 25.3788 54.6351 25.8505 54.9149C27.5752 55.9387 29.4372 56.711 31.3803 57.2082C31.9116 57.344 32.3917 57.6322 32.7613 58.0374C33.131 58.4425 33.3741 58.9469 33.4608 59.4884L34.6122 66.6817H38.6942L39.8455 59.4877C39.9323 58.9462 40.1754 58.4419 40.545 58.0368C40.9146 57.6317 41.3945 57.3434 41.9257 57.2075C43.8688 56.7101 45.7309 55.938 47.4558 54.9146C47.9276 54.6347 48.4709 54.499 49.0188 54.524C49.5668 54.5491 50.0955 54.7338 50.5397 55.0555L56.4432 59.3298L59.3298 56.4435L55.0556 50.5401C54.7339 50.0958 54.5492 49.5671 54.5241 49.0192C54.4991 48.4713 54.6348 47.928 54.9146 47.4562C55.9384 45.7315 56.7106 43.8695 57.2078 41.9264C57.3436 41.3951 57.6319 40.9151 58.037 40.5454C58.4421 40.1757 58.9465 39.9326 59.488 39.8459L66.6814 38.6945V34.6125L59.4873 33.4608C58.9459 33.3741 58.4416 33.1309 58.0365 32.7614C57.6314 32.3918 57.3431 31.9119 57.2071 31.3806C56.7097 29.4376 55.9376 27.5755 54.9142 25.8505C54.6344 25.3788 54.4987 24.8355 54.5238 24.2875C54.5488 23.7396 54.7335 23.2109 55.0552 22.7666L59.3295 16.8632L56.4428 13.9769L50.5408 18.2512C50.0965 18.5728 49.5678 18.7576 49.0199 18.7826C48.472 18.8076 47.9287 18.6719 47.4569 18.3921C45.7321 17.3683 43.8699 16.596 41.9268 16.0986C41.3955 15.9627 40.9156 15.6744 40.546 15.2693C40.1764 14.8642 39.9333 14.3598 39.8466 13.8183L38.6949 6.625H34.6129L33.4615 13.8183C33.3748 14.3598 33.1316 14.8641 32.7621 15.2692C32.3925 15.6743 31.9126 15.9626 31.3813 16.0986C29.4382 16.5961 27.5759 17.3682 25.8509 18.3918C25.3791 18.6716 24.8358 18.8073 24.2879 18.7822C23.7399 18.7572 23.2113 18.5725 22.767 18.2508L16.8636 13.9769L13.9772 16.8632L18.2515 22.7666C18.5732 23.2109 18.7579 23.7395 18.7829 24.2873C18.808 24.8352 18.6723 25.3785 18.3925 25.8502C17.3688 27.575 16.5967 29.4372 16.0996 31.3803C15.9638 31.9116 15.6756 32.3916 15.2704 32.7612C14.8653 33.1308 14.3609 33.3739 13.8194 33.4605L6.62535 34.6122L6.625 38.6949ZM20.723 36.6537C20.723 27.8696 27.8696 20.723 36.6537 20.723C45.4379 20.723 52.5844 27.8696 52.5844 36.6537C52.5844 45.4379 45.4379 52.5844 36.6537 52.5844C27.8696 52.5844 20.723 45.4379 20.723 36.6537ZM26.348 36.6537C26.348 42.3364 30.9711 46.9594 36.6537 46.9594C42.3364 46.9594 46.9594 42.3364 46.9594 36.6537C46.9594 30.9711 42.3364 26.348 36.6537 26.348C30.9711 26.348 26.348 30.9711 26.348 36.6537Z" fill="url(#paint0_linear_81_26)"/>
<path d="M143.779 11.8513C143.759 11.4825 143.812 11.1134 143.935 10.765C144.057 10.4166 144.248 10.0957 144.494 9.82079C144.741 9.54584 145.039 9.32217 145.372 9.16255C145.705 9.00292 146.067 8.91047 146.435 8.89047L164.663 7.90117C165.079 7.87861 165.494 7.94867 165.88 8.1063C166.265 8.26393 166.611 8.5052 166.892 8.81268C167.173 9.12016 167.382 9.48617 167.504 9.88429C167.626 10.2824 167.658 10.7027 167.598 11.1148L164.968 29.1784C164.861 29.9165 164.464 30.5816 163.867 31.0275C163.269 31.4734 162.518 31.6637 161.78 31.5564C161.042 31.4489 160.377 31.0527 159.931 30.4547C159.485 29.8568 159.295 29.1062 159.402 28.3681L160.9 18.0814C139.457 37.2457 115.735 54.2867 90.2997 68.7837C66.5991 82.2922 40.7898 93.9447 13.5887 103.418C13.2914 103.521 12.9787 103.575 12.6638 103.575C11.9994 103.574 11.3567 103.338 10.8494 102.909C10.3422 102.48 10.0032 101.886 9.89242 101.23C9.78167 100.575 9.90635 99.9022 10.2444 99.3302C10.5824 98.7583 11.1119 98.3244 11.7392 98.1054C67.3806 78.728 116.244 50.4262 157.082 13.9459L146.74 14.5074C145.188 14.5879 143.864 13.4024 143.779 11.8513ZM178.799 166.071V178.188C178.799 178.933 178.502 179.649 177.975 180.176C177.447 180.704 176.732 181 175.986 181H3.8916C3.14568 181 2.43031 180.704 1.90286 180.176C1.37542 179.649 1.0791 178.933 1.0791 178.188V166.071C1.0791 165.325 1.37542 164.61 1.90286 164.082C2.43031 163.555 3.14568 163.258 3.8916 163.258H12.2496V122.346C12.2496 121.6 12.546 120.885 13.0734 120.358C13.6009 119.83 14.3162 119.534 15.0621 119.534H37.8536C38.5995 119.534 39.3149 119.83 39.8423 120.358C40.3698 120.885 40.6661 121.6 40.6661 122.346V163.259H54.57V99.4375C54.57 98.6916 54.8664 97.9762 55.3938 97.4488C55.9213 96.9213 56.6366 96.625 57.3825 96.625H80.1747C80.9206 96.625 81.636 96.9213 82.1634 97.4488C82.6909 97.9762 82.9872 98.6916 82.9872 99.4375V163.259H96.8911V75.5158C96.8911 74.7699 97.1874 74.0545 97.7149 73.527C98.2423 72.9996 98.9577 72.7033 99.7036 72.7033H122.495C123.241 72.7033 123.957 72.9996 124.484 73.527C125.012 74.0545 125.308 74.7699 125.308 75.5158V163.258H139.211V53.9963C139.211 53.2504 139.507 52.535 140.035 52.0076C140.562 51.4801 141.277 51.1838 142.023 51.1838H164.815C165.561 51.1838 166.276 51.4801 166.804 52.0076C167.331 52.535 167.628 53.2504 167.628 53.9963V163.258H175.986C176.355 163.258 176.721 163.331 177.062 163.472C177.403 163.614 177.713 163.821 177.975 164.082C178.236 164.343 178.443 164.653 178.584 164.995C178.726 165.336 178.799 165.702 178.799 166.071ZM144.836 163.258H162.003V56.8088H144.836V163.258ZM102.516 163.258H119.683V78.3283H102.516V163.258ZM60.1954 163.258H77.3625V102.25H60.1954V163.258ZM17.875 163.258H35.0414V125.159H17.875V163.258ZM173.174 168.883H6.7041V175.375H173.173L173.174 168.883ZM1 41.0929V32.2145C1.00003 31.5457 1.2384 30.8988 1.67234 30.3899C2.10627 29.8809 2.70737 29.5433 3.36777 29.4375L11.1777 28.1874C11.5834 26.9669 12.0767 25.7773 12.6536 24.6278L8.01437 18.2195C7.62216 17.6778 7.43585 17.014 7.48887 16.3472C7.5419 15.6805 7.83079 15.0545 8.30371 14.5816L14.5816 8.30371C15.0544 7.83066 15.6805 7.54168 16.3472 7.48865C17.014 7.43563 17.6778 7.62202 18.2195 8.01437L24.6271 12.6536C25.7766 12.0764 26.9664 11.5831 28.187 11.1774L29.4375 3.36777C29.5433 2.70737 29.8809 2.10627 30.3899 1.67234C30.8988 1.2384 31.5457 1.00003 32.2145 1H41.0929C41.7618 1.00004 42.4087 1.23846 42.9177 1.67247C43.4266 2.10648 43.7642 2.70766 43.8699 3.36813L45.12 11.1774C46.3406 11.583 47.5303 12.0765 48.6796 12.6539L55.0875 8.01437C55.6293 7.62216 56.2931 7.43585 56.9598 7.48888C57.6265 7.5419 58.2526 7.83079 58.7255 8.30371L65.0034 14.5816C65.4763 15.0545 65.7652 15.6805 65.8182 16.3472C65.8712 17.014 65.6849 17.6778 65.2927 18.2195L60.6531 24.6278C61.2302 25.7772 61.7234 26.9669 62.129 28.1874L69.9393 29.4375C70.5997 29.5433 71.2008 29.8809 71.6347 30.3899C72.0687 30.8988 72.307 31.5457 72.3071 32.2145V41.0929C72.307 41.7617 72.0687 42.4086 71.6347 42.9176C71.2008 43.4265 70.5997 43.7641 69.9393 43.8699L62.1297 45.12C61.7241 46.3407 61.2306 47.5303 60.6531 48.6796L65.2927 55.0875C65.6849 55.6293 65.8712 56.2931 65.8182 56.9598C65.7652 57.6265 65.4763 58.2526 65.0034 58.7255L58.7255 65.0034C58.2526 65.4763 57.6265 65.7652 56.9598 65.8182C56.2931 65.8712 55.6293 65.6849 55.0875 65.2927L48.6793 60.6531C47.53 61.2302 46.3405 61.7235 45.12 62.129L43.8699 69.9393C43.7641 70.5997 43.4265 71.2008 42.9176 71.6347C42.4086 72.0687 41.7617 72.307 41.0929 72.3071H32.2145C31.5457 72.307 30.8988 72.0687 30.3899 71.6347C29.8809 71.2008 29.5433 70.5997 29.4375 69.9393L28.1874 62.1297C26.9668 61.7241 25.7771 61.2306 24.6278 60.6531L18.2199 65.2927C17.6781 65.6849 17.0143 65.8712 16.3476 65.8182C15.6809 65.7652 15.0549 65.4763 14.5819 65.0034L8.30406 58.7255C7.83114 58.2526 7.54225 57.6265 7.48923 56.9598C7.4362 56.2931 7.62251 55.6293 8.01473 55.0875L12.6543 48.6793C12.0772 47.5299 11.5839 46.3402 11.1784 45.1197L3.36848 43.8695C2.70795 43.7641 2.10665 43.4266 1.67255 42.9177C1.23845 42.4088 0.999997 41.7618 1 41.0929ZM6.625 38.6949L13.8187 39.8463C14.3601 39.933 14.8644 40.1761 15.2695 40.5457C15.6747 40.9153 15.9629 41.3952 16.0989 41.9264C16.5963 43.8696 17.3685 45.7319 18.3921 47.4569C18.6719 47.9286 18.8075 48.4719 18.7825 49.0197C18.7574 49.5676 18.5728 50.0962 18.2512 50.5404L13.9769 56.4439L16.8632 59.3302L22.7666 55.0559C23.2109 54.7342 23.7396 54.5495 24.2875 54.5245C24.8355 54.4994 25.3788 54.6351 25.8505 54.9149C27.5752 55.9387 29.4372 56.711 31.3803 57.2082C31.9116 57.344 32.3917 57.6322 32.7613 58.0374C33.131 58.4425 33.3741 58.9469 33.4608 59.4884L34.6122 66.6817H38.6942L39.8455 59.4877C39.9323 58.9462 40.1754 58.4419 40.545 58.0368C40.9146 57.6317 41.3945 57.3434 41.9257 57.2075C43.8688 56.7101 45.7309 55.938 47.4558 54.9146C47.9276 54.6347 48.4709 54.499 49.0188 54.524C49.5668 54.5491 50.0955 54.7338 50.5397 55.0555L56.4432 59.3298L59.3298 56.4435L55.0556 50.5401C54.7339 50.0958 54.5492 49.5671 54.5241 49.0192C54.4991 48.4713 54.6348 47.928 54.9146 47.4562C55.9384 45.7315 56.7106 43.8695 57.2078 41.9264C57.3436 41.3951 57.6319 40.9151 58.037 40.5454C58.4421 40.1757 58.9465 39.9326 59.488 39.8459L66.6814 38.6945V34.6125L59.4873 33.4608C58.9459 33.3741 58.4416 33.1309 58.0365 32.7614C57.6314 32.3918 57.3431 31.9119 57.2071 31.3806C56.7097 29.4376 55.9376 27.5755 54.9142 25.8505C54.6344 25.3788 54.4987 24.8355 54.5238 24.2875C54.5488 23.7396 54.7335 23.2109 55.0552 22.7666L59.3295 16.8632L56.4428 13.9769L50.5408 18.2512C50.0965 18.5728 49.5678 18.7576 49.0199 18.7826C48.472 18.8076 47.9287 18.6719 47.4569 18.3921C45.7321 17.3683 43.8699 16.596 41.9268 16.0986C41.3955 15.9627 40.9156 15.6744 40.546 15.2693C40.1764 14.8642 39.9333 14.3598 39.8466 13.8183L38.6949 6.625H34.6129L33.4615 13.8183C33.3748 14.3598 33.1316 14.8641 32.7621 15.2692C32.3925 15.6743 31.9126 15.9626 31.3813 16.0986C29.4382 16.5961 27.5759 17.3682 25.8509 18.3918C25.3791 18.6716 24.8358 18.8073 24.2879 18.7822C23.7399 18.7572 23.2113 18.5725 22.767 18.2508L16.8636 13.9769L13.9772 16.8632L18.2515 22.7666C18.5732 23.2109 18.7579 23.7395 18.7829 24.2873C18.808 24.8352 18.6723 25.3785 18.3925 25.8502C17.3688 27.575 16.5967 29.4372 16.0996 31.3803C15.9638 31.9116 15.6756 32.3916 15.2704 32.7612C14.8653 33.1308 14.3609 33.3739 13.8194 33.4605L6.62535 34.6122L6.625 38.6949ZM20.723 36.6537C20.723 27.8696 27.8696 20.723 36.6537 20.723C45.4379 20.723 52.5844 27.8696 52.5844 36.6537C52.5844 45.4379 45.4379 52.5844 36.6537 52.5844C27.8696 52.5844 20.723 45.4379 20.723 36.6537ZM26.348 36.6537C26.348 42.3364 30.9711 46.9594 36.6537 46.9594C42.3364 46.9594 46.9594 42.3364 46.9594 36.6537C46.9594 30.9711 42.3364 26.348 36.6537 26.348C30.9711 26.348 26.348 30.9711 26.348 36.6537Z" stroke="#B52C33" stroke-width="0.4" mask="url(#path-1-outside-1_81_26)"/>
<defs>
<linearGradient id="paint0_linear_81_26" x1="6.12262" y1="184.396" x2="174.301" y2="16.2174" gradientUnits="userSpaceOnUse">
<stop stop-color="#B52C33"/>
<stop offset="1" stop-color="#B52C33"/>
</linearGradient>
</defs>
</svg>
