<svg width="172" height="182" viewBox="0 0 172 182" fill="none" xmlns="http://www.w3.org/2000/svg">
<mask id="path-1-outside-1_80_21" maskUnits="userSpaceOnUse" x="0" y="0" width="172" height="182" fill="black">
<rect fill="white" width="172" height="182"/>
<path d="M153.598 96.3929V83.5554C153.605 82.2231 153.346 80.9027 152.838 79.6712C152.33 78.4396 151.581 77.3214 150.637 76.3816C149.693 75.4418 148.571 74.6991 147.337 74.1968C146.103 73.6944 144.781 73.4425 143.449 73.4556H133.837V64.0038C133.837 58.3537 129.369 53.6949 123.72 53.6949H113.345V33.788C113.341 32.4507 113.072 31.1274 112.554 29.8945C112.036 28.6615 111.279 27.5434 110.327 26.6044C109.375 25.6655 108.246 24.9244 107.006 24.4239C105.766 23.9233 104.439 23.6733 103.102 23.6881H79.6787V3.9275C79.6787 3.15108 79.3703 2.40646 78.8213 1.85744C78.2723 1.30843 77.5277 1 76.7512 1C75.9748 1 75.2302 1.30843 74.6812 1.85744C74.1322 2.40646 73.8237 3.15108 73.8237 3.9275V23.6881H48.4197C47.0904 23.6762 45.7721 23.9293 44.5418 24.4328C43.3114 24.9362 42.1938 25.6798 41.2542 26.6202C40.3146 27.5605 39.5719 28.6788 39.0694 29.9095C38.567 31.1402 38.3149 32.4587 38.3278 33.788V82.9699H11.0941C9.76037 82.9674 8.43945 83.2298 7.20794 83.7418C5.97643 84.2538 4.85886 85.0053 3.92005 85.9526C2.98125 86.8999 2.2399 88.0242 1.73903 89.2603C1.23815 90.4964 0.987718 91.8196 1.00225 93.1532V160.663C0.987132 161.034 1.04821 161.403 1.1817 161.748C1.31519 162.094 1.51825 162.408 1.77827 162.672C2.03829 162.935 2.34973 163.143 2.69326 163.281C3.0368 163.42 3.4051 163.486 3.77533 163.476H86.1397C90.3611 168.634 95.6148 172.853 101.563 175.86C107.512 178.867 114.024 180.597 120.68 180.937C127.337 181.278 133.991 180.223 140.216 177.839C146.441 175.456 152.098 171.796 156.824 167.096C161.55 162.396 165.241 156.76 167.66 150.548C170.078 144.337 171.17 137.689 170.867 131.03C170.563 124.372 168.869 117.85 165.896 111.885C162.922 105.92 158.733 100.643 153.598 96.3929ZM38.3278 157.621H6.85725V93.1532C6.84178 92.5883 6.94011 92.0261 7.14639 91.5C7.35267 90.9739 7.66269 90.4946 8.05799 90.0908C8.45329 89.687 8.9258 89.3668 9.44738 89.1493C9.96897 88.9318 10.529 88.8215 11.0941 88.8249H38.3278V157.621ZM113.345 59.5499H123.72C124.293 59.5602 124.858 59.6839 125.383 59.9137C125.908 60.1435 126.382 60.475 126.779 60.8891C127.175 61.3031 127.485 61.7915 127.692 62.3261C127.899 62.8606 127.997 63.4308 127.982 64.0038V76.2367C128.006 77.0414 128.335 77.8071 128.902 78.3781C129.47 78.949 130.234 79.2824 131.038 79.3105H143.449C144.012 79.2966 144.573 79.3965 145.097 79.6043C145.621 79.8121 146.098 80.1234 146.499 80.5197C146.9 80.916 147.216 81.3891 147.43 81.9107C147.644 82.4324 147.75 82.9917 147.743 83.5554V92.2076C140.79 87.8208 132.084 85.2914 123.027 85.2914C119.774 85.2982 116.531 85.6318 113.345 86.2871V59.5499ZM44.1828 157.621V33.788C44.1689 33.2274 44.2689 32.6699 44.4768 32.1491C44.6847 31.6283 44.9962 31.1552 45.3923 30.7583C45.7884 30.3614 46.261 30.0491 46.7813 29.8402C47.3017 29.6313 47.8591 29.5302 48.4197 29.5431H103.102C103.67 29.5274 104.236 29.6254 104.766 29.8314C105.296 30.0373 105.78 30.3471 106.189 30.7425C106.597 31.1379 106.923 31.611 107.147 32.134C107.37 32.6569 107.487 33.2193 107.49 33.788V87.8987C103.758 89.2268 100.195 90.9919 96.8778 93.1572V86.5455C96.8778 85.7691 96.5694 85.0245 96.0203 84.4754C95.4713 83.9264 94.7267 83.618 93.9503 83.618C93.1739 83.618 92.4292 83.9264 91.8802 84.4754C91.3312 85.0245 91.0228 85.7691 91.0228 86.5455V97.6919C84.4359 103.47 79.8006 110.939 77.2573 119.386C76.8827 119.241 76.4844 119.166 76.0827 119.166C75.2997 119.164 74.5471 119.47 73.9876 120.017C73.428 120.565 73.1063 121.311 73.0919 122.094V133.469C73.1036 134.102 73.3215 134.713 73.7125 135.21C74.1034 135.707 74.6461 136.063 75.2579 136.223C75.7408 143.797 78.0557 151.14 82.0035 157.621H44.1828ZM123.079 175.186C114.768 175.186 106.644 172.722 99.7336 168.105C92.8233 163.488 87.4373 156.926 84.2567 149.248C81.076 141.57 80.2436 133.121 81.8648 124.97C83.4859 116.819 87.4877 109.332 93.3642 103.455C99.2406 97.5783 106.728 93.5762 114.879 91.9547C123.03 90.3332 131.479 91.1652 139.157 94.3455C146.835 97.5258 153.398 102.912 158.015 109.822C162.632 116.732 165.097 124.856 165.097 133.167C165.084 144.307 160.653 154.987 152.776 162.864C144.899 170.742 134.219 175.173 123.079 175.186Z"/>
</mask>
<path d="M153.598 96.3929V83.5554C153.605 82.2231 153.346 80.9027 152.838 79.6712C152.33 78.4396 151.581 77.3214 150.637 76.3816C149.693 75.4418 148.571 74.6991 147.337 74.1968C146.103 73.6944 144.781 73.4425 143.449 73.4556H133.837V64.0038C133.837 58.3537 129.369 53.6949 123.72 53.6949H113.345V33.788C113.341 32.4507 113.072 31.1274 112.554 29.8945C112.036 28.6615 111.279 27.5434 110.327 26.6044C109.375 25.6655 108.246 24.9244 107.006 24.4239C105.766 23.9233 104.439 23.6733 103.102 23.6881H79.6787V3.9275C79.6787 3.15108 79.3703 2.40646 78.8213 1.85744C78.2723 1.30843 77.5277 1 76.7512 1C75.9748 1 75.2302 1.30843 74.6812 1.85744C74.1322 2.40646 73.8237 3.15108 73.8237 3.9275V23.6881H48.4197C47.0904 23.6762 45.7721 23.9293 44.5418 24.4328C43.3114 24.9362 42.1938 25.6798 41.2542 26.6202C40.3146 27.5605 39.5719 28.6788 39.0694 29.9095C38.567 31.1402 38.3149 32.4587 38.3278 33.788V82.9699H11.0941C9.76037 82.9674 8.43945 83.2298 7.20794 83.7418C5.97643 84.2538 4.85886 85.0053 3.92005 85.9526C2.98125 86.8999 2.2399 88.0242 1.73903 89.2603C1.23815 90.4964 0.987718 91.8196 1.00225 93.1532V160.663C0.987132 161.034 1.04821 161.403 1.1817 161.748C1.31519 162.094 1.51825 162.408 1.77827 162.672C2.03829 162.935 2.34973 163.143 2.69326 163.281C3.0368 163.42 3.4051 163.486 3.77533 163.476H86.1397C90.3611 168.634 95.6148 172.853 101.563 175.86C107.512 178.867 114.024 180.597 120.68 180.937C127.337 181.278 133.991 180.223 140.216 177.839C146.441 175.456 152.098 171.796 156.824 167.096C161.55 162.396 165.241 156.76 167.66 150.548C170.078 144.337 171.17 137.689 170.867 131.03C170.563 124.372 168.869 117.85 165.896 111.885C162.922 105.92 158.733 100.643 153.598 96.3929ZM38.3278 157.621H6.85725V93.1532C6.84178 92.5883 6.94011 92.0261 7.14639 91.5C7.35267 90.9739 7.66269 90.4946 8.05799 90.0908C8.45329 89.687 8.9258 89.3668 9.44738 89.1493C9.96897 88.9318 10.529 88.8215 11.0941 88.8249H38.3278V157.621ZM113.345 59.5499H123.72C124.293 59.5602 124.858 59.6839 125.383 59.9137C125.908 60.1435 126.382 60.475 126.779 60.8891C127.175 61.3031 127.485 61.7915 127.692 62.3261C127.899 62.8606 127.997 63.4308 127.982 64.0038V76.2367C128.006 77.0414 128.335 77.8071 128.902 78.3781C129.47 78.949 130.234 79.2824 131.038 79.3105H143.449C144.012 79.2966 144.573 79.3965 145.097 79.6043C145.621 79.8121 146.098 80.1234 146.499 80.5197C146.9 80.916 147.216 81.3891 147.43 81.9107C147.644 82.4324 147.75 82.9917 147.743 83.5554V92.2076C140.79 87.8208 132.084 85.2914 123.027 85.2914C119.774 85.2982 116.531 85.6318 113.345 86.2871V59.5499ZM44.1828 157.621V33.788C44.1689 33.2274 44.2689 32.6699 44.4768 32.1491C44.6847 31.6283 44.9962 31.1552 45.3923 30.7583C45.7884 30.3614 46.261 30.0491 46.7813 29.8402C47.3017 29.6313 47.8591 29.5302 48.4197 29.5431H103.102C103.67 29.5274 104.236 29.6254 104.766 29.8314C105.296 30.0373 105.78 30.3471 106.189 30.7425C106.597 31.1379 106.923 31.611 107.147 32.134C107.37 32.6569 107.487 33.2193 107.49 33.788V87.8987C103.758 89.2268 100.195 90.9919 96.8778 93.1572V86.5455C96.8778 85.7691 96.5694 85.0245 96.0203 84.4754C95.4713 83.9264 94.7267 83.618 93.9503 83.618C93.1739 83.618 92.4292 83.9264 91.8802 84.4754C91.3312 85.0245 91.0228 85.7691 91.0228 86.5455V97.6919C84.4359 103.47 79.8006 110.939 77.2573 119.386C76.8827 119.241 76.4844 119.166 76.0827 119.166C75.2997 119.164 74.5471 119.47 73.9876 120.017C73.428 120.565 73.1063 121.311 73.0919 122.094V133.469C73.1036 134.102 73.3215 134.713 73.7125 135.21C74.1034 135.707 74.6461 136.063 75.2579 136.223C75.7408 143.797 78.0557 151.14 82.0035 157.621H44.1828ZM123.079 175.186C114.768 175.186 106.644 172.722 99.7336 168.105C92.8233 163.488 87.4373 156.926 84.2567 149.248C81.076 141.57 80.2436 133.121 81.8648 124.97C83.4859 116.819 87.4877 109.332 93.3642 103.455C99.2406 97.5783 106.728 93.5762 114.879 91.9547C123.03 90.3332 131.479 91.1652 139.157 94.3455C146.835 97.5258 153.398 102.912 158.015 109.822C162.632 116.732 165.097 124.856 165.097 133.167C165.084 144.307 160.653 154.987 152.776 162.864C144.899 170.742 134.219 175.173 123.079 175.186Z" fill="url(#paint0_linear_80_21)"/>
<path d="M153.598 96.3929V83.5554C153.605 82.2231 153.346 80.9027 152.838 79.6712C152.33 78.4396 151.581 77.3214 150.637 76.3816C149.693 75.4418 148.571 74.6991 147.337 74.1968C146.103 73.6944 144.781 73.4425 143.449 73.4556H133.837V64.0038C133.837 58.3537 129.369 53.6949 123.72 53.6949H113.345V33.788C113.341 32.4507 113.072 31.1274 112.554 29.8945C112.036 28.6615 111.279 27.5434 110.327 26.6044C109.375 25.6655 108.246 24.9244 107.006 24.4239C105.766 23.9233 104.439 23.6733 103.102 23.6881H79.6787V3.9275C79.6787 3.15108 79.3703 2.40646 78.8213 1.85744C78.2723 1.30843 77.5277 1 76.7512 1C75.9748 1 75.2302 1.30843 74.6812 1.85744C74.1322 2.40646 73.8237 3.15108 73.8237 3.9275V23.6881H48.4197C47.0904 23.6762 45.7721 23.9293 44.5418 24.4328C43.3114 24.9362 42.1938 25.6798 41.2542 26.6202C40.3146 27.5605 39.5719 28.6788 39.0694 29.9095C38.567 31.1402 38.3149 32.4587 38.3278 33.788V82.9699H11.0941C9.76037 82.9674 8.43945 83.2298 7.20794 83.7418C5.97643 84.2538 4.85886 85.0053 3.92005 85.9526C2.98125 86.8999 2.2399 88.0242 1.73903 89.2603C1.23815 90.4964 0.987718 91.8196 1.00225 93.1532V160.663C0.987132 161.034 1.04821 161.403 1.1817 161.748C1.31519 162.094 1.51825 162.408 1.77827 162.672C2.03829 162.935 2.34973 163.143 2.69326 163.281C3.0368 163.42 3.4051 163.486 3.77533 163.476H86.1397C90.3611 168.634 95.6148 172.853 101.563 175.86C107.512 178.867 114.024 180.597 120.68 180.937C127.337 181.278 133.991 180.223 140.216 177.839C146.441 175.456 152.098 171.796 156.824 167.096C161.55 162.396 165.241 156.76 167.66 150.548C170.078 144.337 171.17 137.689 170.867 131.03C170.563 124.372 168.869 117.85 165.896 111.885C162.922 105.92 158.733 100.643 153.598 96.3929ZM38.3278 157.621H6.85725V93.1532C6.84178 92.5883 6.94011 92.0261 7.14639 91.5C7.35267 90.9739 7.66269 90.4946 8.05799 90.0908C8.45329 89.687 8.9258 89.3668 9.44738 89.1493C9.96897 88.9318 10.529 88.8215 11.0941 88.8249H38.3278V157.621ZM113.345 59.5499H123.72C124.293 59.5602 124.858 59.6839 125.383 59.9137C125.908 60.1435 126.382 60.475 126.779 60.8891C127.175 61.3031 127.485 61.7915 127.692 62.3261C127.899 62.8606 127.997 63.4308 127.982 64.0038V76.2367C128.006 77.0414 128.335 77.8071 128.902 78.3781C129.47 78.949 130.234 79.2824 131.038 79.3105H143.449C144.012 79.2966 144.573 79.3965 145.097 79.6043C145.621 79.8121 146.098 80.1234 146.499 80.5197C146.9 80.916 147.216 81.3891 147.43 81.9107C147.644 82.4324 147.75 82.9917 147.743 83.5554V92.2076C140.79 87.8208 132.084 85.2914 123.027 85.2914C119.774 85.2982 116.531 85.6318 113.345 86.2871V59.5499ZM44.1828 157.621V33.788C44.1689 33.2274 44.2689 32.6699 44.4768 32.1491C44.6847 31.6283 44.9962 31.1552 45.3923 30.7583C45.7884 30.3614 46.261 30.0491 46.7813 29.8402C47.3017 29.6313 47.8591 29.5302 48.4197 29.5431H103.102C103.67 29.5274 104.236 29.6254 104.766 29.8314C105.296 30.0373 105.78 30.3471 106.189 30.7425C106.597 31.1379 106.923 31.611 107.147 32.134C107.37 32.6569 107.487 33.2193 107.49 33.788V87.8987C103.758 89.2268 100.195 90.9919 96.8778 93.1572V86.5455C96.8778 85.7691 96.5694 85.0245 96.0203 84.4754C95.4713 83.9264 94.7267 83.618 93.9503 83.618C93.1739 83.618 92.4292 83.9264 91.8802 84.4754C91.3312 85.0245 91.0228 85.7691 91.0228 86.5455V97.6919C84.4359 103.47 79.8006 110.939 77.2573 119.386C76.8827 119.241 76.4844 119.166 76.0827 119.166C75.2997 119.164 74.5471 119.47 73.9876 120.017C73.428 120.565 73.1063 121.311 73.0919 122.094V133.469C73.1036 134.102 73.3215 134.713 73.7125 135.21C74.1034 135.707 74.6461 136.063 75.2579 136.223C75.7408 143.797 78.0557 151.14 82.0035 157.621H44.1828ZM123.079 175.186C114.768 175.186 106.644 172.722 99.7336 168.105C92.8233 163.488 87.4373 156.926 84.2567 149.248C81.076 141.57 80.2436 133.121 81.8648 124.97C83.4859 116.819 87.4877 109.332 93.3642 103.455C99.2406 97.5783 106.728 93.5762 114.879 91.9547C123.03 90.3332 131.479 91.1652 139.157 94.3455C146.835 97.5258 153.398 102.912 158.015 109.822C162.632 116.732 165.097 124.856 165.097 133.167C165.084 144.307 160.653 154.987 152.776 162.864C144.899 170.742 134.219 175.173 123.079 175.186Z" stroke="#B52C33" mask="url(#path-1-outside-1_80_21)"/>
<path d="M127.47 104.31C132.303 104.31 136.22 108.456 136.281 113.459H146.58C151.45 113.459 155.312 117.538 155.312 122.593V131.823C155.312 133.549 153.995 135.183 152.213 135.183H152.018V150.172C152.018 155.229 148.104 159.334 143.236 159.335H102.915C98.0516 159.334 94.066 155.232 94.0658 150.172V135.183H93.9408C92.1663 135.183 90.773 133.556 90.7728 131.823V122.594C90.7728 117.535 94.7071 113.459 99.5736 113.459H109.073C109.133 108.457 113.032 104.31 117.866 104.31H127.47ZM100.423 150.171C100.423 151.758 101.587 152.978 102.917 152.978H143.236C144.559 152.978 145.663 151.766 145.663 150.171L145.665 135.183H132.259V136.946C132.259 138.676 130.914 140.306 129.135 140.306H116.13C114.341 140.306 113.097 138.663 113.097 136.946V135.183H100.423V150.171ZM119.45 133.951H125.903V129.694H119.45V133.951ZM99.5736 119.814C98.2456 119.814 97.1283 121.004 97.1283 122.594V128.828H113.095V126.7C113.095 124.982 114.339 123.339 116.128 123.339H129.134C130.913 123.339 132.258 124.971 132.258 126.7V128.828H148.956V122.594C148.956 120.995 147.901 119.814 146.58 119.814H99.5736ZM117.866 110.666C116.583 110.666 115.484 111.908 115.43 113.459H129.923C129.869 111.91 128.754 110.666 127.47 110.666H117.866Z" fill="url(#paint1_linear_80_21)" stroke="#B52C33" stroke-width="0.5"/>
<path d="M27.7704 135.415C28.6131 135.415 29.4216 135.75 30.0175 136.346C30.6133 136.942 30.9481 137.75 30.9481 138.593C30.948 139.435 30.6131 140.243 30.0175 140.839C29.4216 141.435 28.6131 141.77 27.7704 141.77H17.8173C16.9745 141.77 16.1661 141.435 15.5702 140.839C14.9745 140.243 14.6396 139.435 14.6395 138.593C14.6395 137.75 14.9744 136.942 15.5702 136.346C16.1661 135.75 16.9745 135.415 17.8173 135.415H27.7704ZM27.7704 117.85C28.6131 117.85 29.4216 118.184 30.0175 118.78C30.6133 119.376 30.9481 120.185 30.9481 121.027C30.9481 121.87 30.6134 122.679 30.0175 123.274C29.4216 123.87 28.6131 124.205 27.7704 124.205H17.8173C16.9746 124.205 16.1661 123.87 15.5702 123.274C14.9743 122.679 14.6395 121.87 14.6395 121.027C14.6395 120.185 14.9743 119.376 15.5702 118.78C16.1661 118.184 16.9746 117.85 17.8173 117.85H27.7704ZM27.7704 99.9189C28.6131 99.9189 29.4216 100.254 30.0175 100.85C30.6133 101.446 30.9481 102.254 30.9481 103.097C30.9481 103.939 30.6133 104.748 30.0175 105.344C29.4216 105.94 28.613 106.274 27.7704 106.274H17.8173C16.9746 106.274 16.1661 105.939 15.5702 105.344C14.9743 104.748 14.6396 103.939 14.6395 103.097C14.6395 102.254 14.9743 101.446 15.5702 100.85C16.1661 100.254 16.9745 99.9189 17.8173 99.9189H27.7704Z" fill="url(#paint2_linear_80_21)" stroke="#B52C33" stroke-width="0.5"/>
<path d="M58.4546 47.8198C59.2972 47.8198 60.1058 48.1546 60.7017 48.7504C61.2974 49.3463 61.6323 50.1549 61.6323 50.9975V62.3725C61.6323 63.2151 61.2974 64.0237 60.7017 64.6196C60.1058 65.2154 59.2972 65.5502 58.4546 65.5502C57.6119 65.5502 56.8034 65.2155 56.2075 64.6196C55.6116 64.0237 55.2769 63.2152 55.2769 62.3725V50.9975C55.2769 50.1548 55.6116 49.3463 56.2075 48.7504C56.8034 48.1545 57.6119 47.8198 58.4546 47.8198Z" fill="url(#paint3_linear_80_21)" stroke="#B52C33" stroke-width="0.5"/>
<path d="M76.0195 47.8198C76.8622 47.8198 77.6708 48.1546 78.2666 48.7504C78.8623 49.3463 79.1973 50.1549 79.1973 50.9975V62.3725C79.1973 63.2151 78.8623 64.0237 78.2666 64.6196C77.6708 65.2154 76.8622 65.5502 76.0195 65.5502C75.1768 65.5502 74.3684 65.2155 73.7725 64.6196C73.1766 64.0237 72.8418 63.2152 72.8418 62.3725V50.9975C72.8418 50.1548 73.1766 49.3463 73.7725 48.7504C74.3684 48.1545 75.1768 47.8198 76.0195 47.8198Z" fill="url(#paint4_linear_80_21)" stroke="#B52C33" stroke-width="0.5"/>
<path d="M93.9506 47.8198C94.7932 47.8198 95.6018 48.1546 96.1976 48.7504C96.7934 49.3463 97.1283 50.1549 97.1283 50.9975V62.3725C97.1283 63.2151 96.7934 64.0237 96.1976 64.6196C95.6018 65.2154 94.7932 65.5502 93.9506 65.5502C93.1078 65.5502 92.2994 65.2155 91.7035 64.6196C91.1076 64.0237 90.7728 63.2152 90.7728 62.3725V50.9975C90.7728 50.1548 91.1076 49.3463 91.7035 48.7504C92.2994 48.1545 93.1078 47.8198 93.9506 47.8198Z" fill="url(#paint5_linear_80_21)" stroke="#B52C33" stroke-width="0.5"/>
<path d="M58.4546 83.368C59.2972 83.368 60.1058 83.7028 60.7017 84.2986C61.2974 84.8945 61.6323 85.7031 61.6323 86.5457V97.9207C61.6323 98.7633 61.2974 99.5719 60.7017 100.168C60.1058 100.764 59.2972 101.098 58.4546 101.098C57.6119 101.098 56.8034 100.764 56.2075 100.168C55.6116 99.5719 55.2769 98.7634 55.2769 97.9207V86.5457C55.2769 85.703 55.6116 84.8945 56.2075 84.2986C56.8034 83.7028 57.6119 83.368 58.4546 83.368Z" fill="#B52C33" stroke="#B52C33" stroke-width="0.5"/>
<path d="M76.0195 83.368C76.8622 83.368 77.6708 83.7028 78.2666 84.2986C78.8624 84.8945 79.1973 85.7031 79.1973 86.5457V97.9207C79.1973 98.7633 78.8623 99.5719 78.2666 100.168C77.6708 100.764 76.8622 101.098 76.0195 101.098C75.1768 101.098 74.3684 100.764 73.7725 100.168C73.1766 99.5719 72.8418 98.7634 72.8418 97.9207V86.5457C72.8418 85.703 73.1766 84.8945 73.7725 84.2986C74.3684 83.7028 75.1768 83.368 76.0195 83.368Z" fill="#B52C33" stroke="#B52C33" stroke-width="0.5"/>
<path d="M58.4546 118.916C59.2972 118.916 60.1058 119.251 60.7017 119.847C61.2974 120.443 61.6323 121.251 61.6323 122.094V133.469C61.6323 134.312 61.2974 135.12 60.7017 135.716C60.1058 136.312 59.2972 136.647 58.4546 136.647C57.6119 136.647 56.8034 136.312 56.2075 135.716C55.6116 135.12 55.2769 134.312 55.2769 133.469V122.094C55.2769 121.251 55.6116 120.443 56.2075 119.847C56.8034 119.251 57.6119 118.916 58.4546 118.916Z" fill="url(#paint6_linear_80_21)" stroke="#B52C33" stroke-width="0.5"/>
<defs>
<linearGradient id="paint0_linear_80_21" x1="85.9527" y1="1.73187" x2="85.9527" y2="178.332" gradientUnits="userSpaceOnUse">
<stop stop-color="#B52C33"/>
<stop offset="1" stop-color="#B52C33"/>
</linearGradient>
<linearGradient id="paint1_linear_80_21" x1="123.042" y1="1.73184" x2="123.042" y2="178.332" gradientUnits="userSpaceOnUse">
<stop stop-color="#B52C33"/>
<stop offset="1" stop-color="#B52C33"/>
</linearGradient>
<linearGradient id="paint2_linear_80_21" x1="22.7938" y1="1.73185" x2="22.7938" y2="178.332" gradientUnits="userSpaceOnUse">
<stop stop-color="#B52C33"/>
<stop offset="1" stop-color="#B52C33"/>
</linearGradient>
<linearGradient id="paint3_linear_80_21" x1="58.4544" y1="1.73187" x2="58.4544" y2="178.332" gradientUnits="userSpaceOnUse">
<stop stop-color="#B52C33"/>
<stop offset="1" stop-color="#B52C33"/>
</linearGradient>
<linearGradient id="paint4_linear_80_21" x1="76.0193" y1="1.73187" x2="76.0193" y2="178.332" gradientUnits="userSpaceOnUse">
<stop stop-color="#B52C33"/>
<stop offset="1" stop-color="#B52C33"/>
</linearGradient>
<linearGradient id="paint5_linear_80_21" x1="93.9503" y1="1.73187" x2="93.9503" y2="178.332" gradientUnits="userSpaceOnUse">
<stop stop-color="#B52C33"/>
<stop offset="1" stop-color="#B52C33"/>
</linearGradient>
<linearGradient id="paint6_linear_80_21" x1="58.4544" y1="1.73191" x2="58.4544" y2="178.332" gradientUnits="userSpaceOnUse">
<stop stop-color="#B52C33"/>
<stop offset="1" stop-color="#B52C33"/>
</linearGradient>
</defs>
</svg>
